<?xml version="1.0" encoding="UTF-8"?>
<svg width="120px" height="28px" viewBox="0 0 120 28" version="1.1" xmlns="http://www.w3.org/2000/svg" xmlns:xlink="http://www.w3.org/1999/xlink">
    <title>st-logo</title>
    <g id="Page-1" stroke="none" stroke-width="1" fill="none" fill-rule="evenodd">
        <g id="st-logo" fill-rule="nonzero">
            <g id="Group" transform="translate(39.000000, 2.000000)" fill="#303030">
                <path d="M6.155,20.9080005 C3.922,20.9080005 2.297,20.418 0.618,19.285 L2.21,16.324 C2.964,17.256 4.387,17.921 5.661,17.921 C6.591,17.921 7.52,17.575 7.52,16.529 C7.52,15.51 6.766,15.02 5.171,14.32 C3.256,13.476 1.223,12.64 1.223,9.911 C1.223,6.892 3.893,5.589 6.854,5.589 C8.506,5.589 10.104,5.936 11.327,6.894 L9.812,9.536 C9.205,8.81 8.073,8.319 7.141,8.319 C6.128,8.319 5.2,8.695 5.2,9.65 C5.2,10.756 6.972,11.247 7.751,11.597 C9.694,12.463 11.757,13.626 11.757,16.037 C11.757,19.316 9.206,20.909 6.155,20.9080005 Z" id="Path"></path>
                <path d="M18.576,20.91 C16.72,20.91 14.168,20.187 14.168,17.371 L14.168,8.809 L12.396,8.809 L12.396,6.601 C14.428,6.023 15.415,4.427 15.936,2.48 L18.172,2.48 L18.172,5.997 L21.364,5.997 L21.364,8.753 L18.172,8.753 L18.172,15.691 C18.172,17.025 18.461,17.953 19.998,17.954 C20.723,17.954 21.625,17.63 21.888,17.49 L21.888,20.188 C21.101,20.564 19.826,20.91 18.576,20.91 Z" id="Path"></path>
                <path d="M25.83,4.397 C24.728,4.397 23.826,3.469 23.826,2.37 C23.826,1.264 24.728,0.336 25.83,0.336 C26.932,0.336 27.86,1.264 27.86,2.37 C27.86,3.47 26.932,4.397 25.83,4.397 Z M23.826,20.507 L23.826,5.997 L27.832,5.997 L27.832,20.507 L23.826,20.507 Z" id="Shape"></path>
                <path d="M37.762,20.911 C36.399,20.911 35.297,20.508 34.541,19.463 L34.541,25.381 L30.535,25.381 L30.535,5.998 L34.306,5.998 L34.541,7.245 C35.439,6.23 36.572,5.675 37.966,5.675 C42.058,5.675 43.449,9.655 43.449,13.252 C43.449,16.852 41.998,20.911 37.762,20.911 Z M36.658,8.667 C35.21,8.667 34.541,9.712 34.541,11.046 L34.541,15.368 C34.541,16.882 35.118,17.748 36.717,17.748 C39.01,17.748 39.184,14.875 39.184,13.194 C39.184,11.453 38.952,8.667 36.658,8.667 Z" id="Shape"></path>
                <path d="M52.737,20.912 C51.374,20.912 50.27,20.509 49.512,19.463 L49.512,25.383 L45.513,25.382 L45.513,5.999 L49.282,5.999 L49.512,7.246 C50.412,6.231 51.546,5.676 52.938,5.676 C57.032,5.676 58.4230005,9.657 58.4230005,13.253 C58.424,16.853 56.975,20.912 52.737,20.912 Z M51.636,8.668 C50.182,8.668 49.513,9.713 49.513,11.047 L49.513,15.369 C49.513,16.883 50.095,17.749 51.692,17.75 C53.986,17.75 54.159,14.876 54.159,13.195 C54.158,11.455 53.924,8.668 51.636,8.668 Z" id="Shape"></path>
                <path d="M64.317,20.738 C61.792,20.738 60.572,19.373 60.572,16.884 L60.572,0.021 L64.577,0.021 L64.577,16.127 C64.577,17.081 64.895,17.868 66.057,17.868 C66.346,17.868 66.694,17.781 66.925,17.667 L66.925,20.332 C66.231,20.654 65.071,20.738 64.317,20.738 Z" id="Path"></path>
                <path d="M80.741,14.475 L71.686,14.475 C71.686,16.592 72.819,17.926 74.995,17.926 C76.477,17.926 77.493,17.52 78.595,16.33 L80.423,18.626 C78.683,20.394 76.709,20.975 74.272,20.975 C69.919,20.975 67.45,17.348 67.45,13.254 C67.45,8.757 69.92,5.651 74.591,5.651 C78.828,5.651 80.798,9.221 80.798,13.341 C80.797,13.722 80.797,14.098 80.741,14.475 Z M74.416,8.525 C72.27,8.525 71.716,10.265 71.659,12.006 L76.677,12.006 C76.677,10.468 76.301,8.525 74.416,8.525 Z" id="Shape"></path>
            </g>
            <g id="Group">
                <polygon id="Path" fill="#AFAFAF" points="25.882 22.133 6.346 22.133 6.346 20.293 22.695 20.293 14.52 6.131 16.112 5.211"></polygon>
                <path d="M20.745,5.671 C20.745,8.669 18.315,11.101 15.316,11.101 C12.319,11.101 9.89,8.668 9.89,5.671 C9.89,2.678 12.319,0.246 15.316,0.246 C18.315,0.246 20.745,2.679 20.745,5.671 Z" id="Path" fill="#E96841"></path>
                <path d="M29.718,21.213 C29.718,24.21 27.286,26.643 24.289,26.643 C21.292,26.643 18.863,24.21 18.863,21.213 C18.863,18.221 21.292,15.7879923 24.289,15.7879923 C27.286,15.783 29.718,18.215 29.718,21.213 Z" id="Path" fill="#669380"></path>
                <path d="M11.771,21.213 C11.771,24.21 9.342,26.643 6.345,26.643 C3.349,26.643 0.916,24.21 0.916,21.213 C0.916,18.221 3.349,15.788 6.345,15.788 C9.343,15.788 11.771,18.221 11.771,21.213 Z" id="Path" fill="#F8A81D"></path>
            </g>
        </g>
    </g>
</svg>